<svg width="64" height="48" viewBox="0 0 64 48" fill="none" xmlns="http://www.w3.org/2000/svg">
<path d="M26 16.5H38C39.933 16.5 41.5 18.067 41.5 20V27C41.5 27.2761 41.2761 27.5 41 27.5H23C22.7239 27.5 22.5 27.2761 22.5 27V20C22.5 18.067 24.067 16.5 26 16.5Z" stroke="#141414"/>
<circle cx="32" cy="12" r="4.5" stroke="#141414"/>
<path d="M15.3008 40H14.1523V31.416H16.4961C16.9492 31.416 17.3691 31.4746 17.7559 31.5918C18.1465 31.7051 18.4844 31.873 18.7695 32.0957C19.0586 32.3184 19.2852 32.5957 19.4492 32.9277C19.6133 33.2559 19.6953 33.6367 19.6953 34.0703C19.6953 34.3789 19.6543 34.666 19.5723 34.9316C19.4902 35.1934 19.375 35.4316 19.2266 35.6465C19.082 35.8613 18.9121 36.0527 18.7168 36.2207C18.5215 36.3848 18.3105 36.5234 18.084 36.6367C17.8574 36.75 17.6211 36.8359 17.375 36.8945C17.1289 36.9531 16.8828 36.9824 16.6367 36.9824C16.5898 36.9824 16.5391 36.9824 16.4844 36.9824C16.4297 36.9785 16.3633 36.9707 16.2852 36.959L16.3672 36.0801C16.4375 36.0918 16.498 36.0996 16.5488 36.1035C16.5996 36.1035 16.6504 36.1035 16.7012 36.1035C16.9512 36.1035 17.1855 36.0664 17.4043 35.9922C17.627 35.9141 17.8203 35.7969 17.9844 35.6406C18.1523 35.4844 18.2832 35.2891 18.377 35.0547C18.4746 34.8164 18.5234 34.5352 18.5234 34.2109C18.5234 33.8789 18.4707 33.5938 18.3652 33.3555C18.2637 33.1172 18.1152 32.9219 17.9199 32.7695C17.7285 32.6172 17.4922 32.5059 17.2109 32.4355C16.9336 32.3613 16.6211 32.3242 16.2734 32.3242H15.3008V40ZM21.3008 33.7891H22.168L22.3438 35.6523C22.3945 35.5547 22.4473 35.4551 22.502 35.3535C22.5605 35.248 22.6172 35.1465 22.6719 35.0488C22.7305 34.9512 22.7871 34.8594 22.8418 34.7734C22.8965 34.6875 22.9453 34.6133 22.9883 34.5508C23.0742 34.4297 23.1699 34.3164 23.2754 34.2109C23.3848 34.1016 23.502 34.0078 23.627 33.9297C23.752 33.8477 23.8848 33.7852 24.0254 33.7422C24.166 33.6953 24.3164 33.6719 24.4766 33.6719C24.5898 33.6719 24.6973 33.6855 24.7988 33.7129C24.9004 33.7363 24.9844 33.7773 25.0508 33.8359L24.9336 34.8789C24.8633 34.8594 24.793 34.8477 24.7227 34.8438C24.6562 34.8359 24.5898 34.832 24.5234 34.832C24.2461 34.832 24.0039 34.877 23.7969 34.9668C23.5938 35.0566 23.4102 35.1797 23.2461 35.3359C23.0859 35.4883 22.9395 35.668 22.8066 35.875C22.6777 36.082 22.5469 36.3047 22.4141 36.543V40H21.3008V33.7891ZM28.707 40.1172C28.2461 40.1172 27.8359 40.0352 27.4766 39.8711C27.1172 39.707 26.8125 39.4863 26.5625 39.209C26.3164 38.9316 26.127 38.6094 25.9941 38.2422C25.8652 37.8711 25.8008 37.4805 25.8008 37.0703C25.8008 36.6016 25.8828 36.1621 26.0469 35.752C26.2148 35.3379 26.4453 34.9766 26.7383 34.668C27.0352 34.3594 27.3867 34.1172 27.793 33.9414C28.1992 33.7617 28.6406 33.6719 29.1172 33.6719C29.582 33.6719 29.9961 33.7559 30.3594 33.9238C30.7227 34.0879 31.0273 34.3105 31.2734 34.5918C31.5234 34.873 31.7129 35.1992 31.8418 35.5703C31.9707 35.9375 32.0352 36.3242 32.0352 36.7305C32.0352 37.2031 31.9512 37.6465 31.7832 38.0605C31.6152 38.4707 31.3828 38.8281 31.0859 39.1328C30.7891 39.4375 30.4375 39.6777 30.0312 39.8535C29.625 40.0293 29.1836 40.1172 28.707 40.1172ZM28.9531 39.2266C29.2383 39.2266 29.4961 39.1699 29.7266 39.0566C29.9609 38.9395 30.1602 38.7812 30.3242 38.582C30.4922 38.3828 30.6211 38.1484 30.7109 37.8789C30.8047 37.6055 30.8516 37.3125 30.8516 37C30.8516 36.6914 30.8066 36.3926 30.7168 36.1035C30.627 35.8105 30.4961 35.5508 30.3242 35.3242C30.1562 35.0938 29.9492 34.9102 29.7031 34.7734C29.457 34.6328 29.1797 34.5625 28.8711 34.5625C28.5859 34.5625 28.3262 34.6211 28.0918 34.7383C27.8613 34.8516 27.6621 35.0098 27.4941 35.2129C27.3301 35.4121 27.2012 35.6484 27.1074 35.9219C27.0176 36.1953 26.9727 36.4883 26.9727 36.8008C26.9727 37.1094 27.0176 37.4102 27.1074 37.7031C27.1973 37.9922 27.3262 38.25 27.4941 38.4766C27.666 38.7031 27.873 38.8848 28.1152 39.0215C28.3613 39.1582 28.6406 39.2266 28.9531 39.2266ZM34.2559 34.6797H33.002L33.0957 34.0469L34.2559 33.7891V33.4844C34.2559 33.082 34.3164 32.6992 34.4375 32.3359C34.5625 31.9727 34.7402 31.6562 34.9707 31.3867C35.2012 31.1133 35.4844 30.8965 35.8203 30.7363C36.1562 30.5762 36.5391 30.4961 36.9688 30.4961C37.1289 30.4961 37.2969 30.5078 37.4727 30.5312C37.6484 30.5547 37.8184 30.5938 37.9824 30.6484L37.7598 31.5508L37.6426 31.6094C37.5137 31.543 37.373 31.4902 37.2207 31.4512C37.0723 31.4082 36.9121 31.3867 36.7402 31.3867C36.4941 31.3867 36.2832 31.4355 36.1074 31.5332C35.9355 31.627 35.7949 31.7559 35.6855 31.9199C35.5762 32.084 35.4961 32.2773 35.4453 32.5C35.3945 32.7227 35.3691 32.9609 35.3691 33.2148V33.7891H37.4902L37.2559 34.6797H35.3691V40H34.2559V34.6797ZM38.9785 33.7891H40.0918V40H38.9785V33.7891ZM39.541 32.4414C39.4434 32.4414 39.3516 32.4238 39.2656 32.3887C39.1797 32.3535 39.1055 32.3047 39.043 32.2422C38.9805 32.1797 38.9316 32.1074 38.8965 32.0254C38.8613 31.9395 38.8438 31.8457 38.8438 31.7441C38.8438 31.6426 38.8633 31.5469 38.9023 31.457C38.9414 31.3672 38.9922 31.2891 39.0547 31.2227C39.1211 31.1562 39.1973 31.1055 39.2832 31.0703C39.373 31.0312 39.4668 31.0117 39.5645 31.0117C39.6582 31.0117 39.7461 31.0312 39.8281 31.0703C39.9141 31.1055 39.9883 31.1562 40.0508 31.2227C40.1133 31.2891 40.1621 31.3672 40.1973 31.457C40.2324 31.543 40.25 31.6348 40.25 31.7324C40.25 31.8379 40.2305 31.9355 40.1914 32.0254C40.1523 32.1113 40.0996 32.1855 40.0332 32.248C39.9707 32.3066 39.8965 32.3535 39.8105 32.3887C39.7246 32.4238 39.6348 32.4414 39.541 32.4414ZM42.1719 30.6133H43.2852V40H42.1719V30.6133ZM50.2461 39.4727C50.0977 39.5781 49.9258 39.6719 49.7305 39.7539C49.5391 39.832 49.3398 39.8984 49.1328 39.9531C48.9258 40.0078 48.7168 40.0488 48.5059 40.0762C48.2988 40.1035 48.1055 40.1172 47.9258 40.1172C47.5273 40.1172 47.1484 40.0508 46.7891 39.918C46.4297 39.7852 46.1152 39.5898 45.8457 39.332C45.5762 39.0742 45.3613 38.7559 45.2012 38.377C45.041 37.9941 44.9609 37.5547 44.9609 37.0586C44.9609 36.5469 45.0449 36.082 45.2129 35.6641C45.3848 35.2461 45.6133 34.8906 45.8984 34.5977C46.1836 34.3008 46.5117 34.0723 46.8828 33.9121C47.2578 33.752 47.6504 33.6719 48.0605 33.6719C48.3926 33.6719 48.7012 33.7285 48.9863 33.8418C49.2754 33.9512 49.5254 34.1172 49.7363 34.3398C49.9512 34.5625 50.1191 34.8418 50.2402 35.1777C50.3613 35.5098 50.4219 35.8984 50.4219 36.3438C50.4219 36.4336 50.418 36.541 50.4102 36.666C50.4023 36.791 50.3867 36.9219 50.3633 37.0586H46.1211C46.1211 37.3945 46.1797 37.6953 46.2969 37.9609C46.418 38.2227 46.5859 38.4453 46.8008 38.6289C47.0195 38.8086 47.2793 38.9453 47.5801 39.0391C47.8809 39.1328 48.2129 39.1797 48.5762 39.1797C48.666 39.1797 48.7754 39.1758 48.9043 39.168C49.0332 39.1602 49.1719 39.1445 49.3203 39.1211C49.4688 39.0977 49.623 39.0645 49.7832 39.0215C49.9434 38.9746 50.0977 38.9141 50.2461 38.8398V39.4727ZM49.3672 36.3672C49.3672 36.0742 49.3262 35.8164 49.2441 35.5938C49.1621 35.3672 49.0508 35.1777 48.9102 35.0254C48.7695 34.873 48.6055 34.7578 48.418 34.6797C48.2344 34.6016 48.0371 34.5625 47.8262 34.5625C47.5918 34.5625 47.3711 34.6113 47.1641 34.709C46.957 34.8027 46.7754 34.9316 46.6191 35.0957C46.4668 35.2598 46.3457 35.4512 46.2559 35.6699C46.166 35.8887 46.1211 36.1211 46.1211 36.3672H49.3672Z" fill="#141414"/>
</svg>
