<svg width="64" height="48" viewBox="0 0 64 48" fill="none" xmlns="http://www.w3.org/2000/svg">
<path d="M13.4785 40H11.0996V31.416H14.4277C15.0332 31.416 15.5625 31.4824 16.0156 31.6152C16.4688 31.7441 16.8457 31.9297 17.1465 32.1719C17.4473 32.4141 17.6719 32.7051 17.8203 33.0449C17.9727 33.3848 18.0488 33.7617 18.0488 34.1758C18.0488 34.6328 17.9688 35.0488 17.8086 35.4238C17.6484 35.7949 17.4258 36.1133 17.1406 36.3789C16.8555 36.6406 16.5195 36.8438 16.1328 36.9883C15.7461 37.1328 15.3281 37.2051 14.8789 37.2051C14.8125 37.2051 14.748 37.2031 14.6855 37.1992C14.627 37.1953 14.5605 37.1875 14.4863 37.1758L14.5918 35.9102C14.6113 35.9141 14.6426 35.918 14.6855 35.9219C14.7324 35.9219 14.7715 35.9219 14.8027 35.9219C14.9824 35.9219 15.1328 35.8789 15.2539 35.793C15.375 35.707 15.4727 35.5938 15.5469 35.4531C15.6211 35.3125 15.6738 35.1543 15.7051 34.9785C15.7363 34.8027 15.752 34.623 15.752 34.4395C15.752 34.1465 15.7188 33.8965 15.6523 33.6895C15.5859 33.4824 15.4902 33.3145 15.3652 33.1855C15.2402 33.0566 15.0898 32.9629 14.9141 32.9043C14.7383 32.8457 14.541 32.8164 14.3223 32.8164H13.4785V40ZM19.4551 33.7891H21.459L21.7285 35.5938C21.7949 35.4727 21.8613 35.3535 21.9277 35.2363C21.9941 35.1152 22.0547 35.0059 22.1094 34.9082C22.168 34.8066 22.2168 34.7207 22.2559 34.6504C22.2988 34.5762 22.3262 34.5273 22.3379 34.5039C22.4121 34.3828 22.4922 34.2715 22.5781 34.1699C22.668 34.0684 22.7676 33.9805 22.877 33.9062C22.9902 33.832 23.1152 33.7754 23.252 33.7363C23.3926 33.6934 23.5508 33.6719 23.7266 33.6719C23.8398 33.6719 23.9688 33.6875 24.1133 33.7188C24.2617 33.75 24.4004 33.7988 24.5293 33.8652L24.2715 35.957C24.2324 35.9492 24.1797 35.9434 24.1133 35.9395C24.0508 35.9316 23.9824 35.9258 23.9082 35.9219C23.834 35.918 23.7617 35.916 23.6914 35.916C23.6211 35.9121 23.5605 35.9102 23.5098 35.9102C23.3379 35.9102 23.168 35.9219 23 35.9453C22.832 35.9688 22.6719 36.0039 22.5195 36.0508C22.3711 36.0938 22.2344 36.1484 22.1094 36.2148C21.9844 36.2773 21.8809 36.3477 21.7988 36.4258V40H19.4551V33.7891ZM28.3906 40.1172C27.8281 40.1172 27.3398 40.0352 26.9258 39.8711C26.5156 39.7031 26.1758 39.4785 25.9062 39.1973C25.6367 38.916 25.4355 38.5918 25.3027 38.2246C25.1699 37.8535 25.1035 37.4648 25.1035 37.0586C25.1035 36.582 25.1895 36.1387 25.3613 35.7285C25.5371 35.3145 25.7852 34.9551 26.1055 34.6504C26.4297 34.3457 26.8203 34.1074 27.2773 33.9355C27.7344 33.7598 28.248 33.6719 28.8184 33.6719C29.3691 33.6719 29.8496 33.7539 30.2598 33.918C30.6738 34.0781 31.0176 34.2988 31.291 34.5801C31.5645 34.8574 31.7695 35.1816 31.9062 35.5527C32.043 35.9238 32.1113 36.3184 32.1113 36.7363C32.1113 37.2246 32.0215 37.6758 31.8418 38.0898C31.666 38.5039 31.4141 38.8613 31.0859 39.1621C30.7617 39.4629 30.3711 39.6973 29.9141 39.8652C29.457 40.0332 28.9492 40.1172 28.3906 40.1172ZM28.6426 38.7344C28.791 38.7344 28.9297 38.7012 29.0586 38.6348C29.1914 38.5684 29.3047 38.4629 29.3984 38.3184C29.4961 38.1738 29.5723 37.9922 29.627 37.7734C29.6816 37.5508 29.709 37.2832 29.709 36.9707C29.709 36.6816 29.6836 36.4199 29.6328 36.1855C29.582 35.9473 29.5078 35.7461 29.4102 35.582C29.3164 35.4141 29.1973 35.2852 29.0527 35.1953C28.9121 35.1016 28.752 35.0547 28.5723 35.0547C28.2559 35.0547 27.998 35.2012 27.7988 35.4941C27.6035 35.7871 27.5059 36.2324 27.5059 36.8301C27.5059 37.1387 27.5332 37.4121 27.5879 37.6504C27.6426 37.8848 27.7188 38.084 27.8164 38.248C27.918 38.4082 28.0371 38.5293 28.1738 38.6113C28.3145 38.6934 28.4707 38.7344 28.6426 38.7344ZM33.8809 35.1719H32.6387L32.7793 34.2109L33.8926 33.7891V33.625C33.8926 33.1875 33.957 32.7793 34.0859 32.4004C34.2188 32.0176 34.4141 31.6855 34.6719 31.4043C34.9297 31.123 35.248 30.9023 35.627 30.7422C36.0098 30.5781 36.4512 30.4961 36.9512 30.4961C37.1582 30.4961 37.375 30.5117 37.6016 30.543C37.832 30.5703 38.0508 30.6152 38.2578 30.6777L37.959 32.0078L37.8535 32.0664C37.7598 32.0078 37.6523 31.9629 37.5312 31.9316C37.4102 31.8965 37.291 31.8789 37.1738 31.8789C36.834 31.8789 36.5898 32.0195 36.4414 32.3008C36.2969 32.582 36.2246 32.9805 36.2246 33.4961V33.7891H38.1113L37.8066 35.1719H36.2246V40H33.8809V35.1719ZM39.4707 33.7891H41.8145V40H39.4707V33.7891ZM40.6074 32.9336C40.4082 32.9336 40.2285 32.9062 40.0684 32.8516C39.9082 32.793 39.7715 32.7148 39.6582 32.6172C39.5449 32.5156 39.457 32.3984 39.3945 32.2656C39.3359 32.1328 39.3066 31.9902 39.3066 31.8379C39.3066 31.6816 39.3398 31.5332 39.4062 31.3926C39.4727 31.252 39.5664 31.1309 39.6875 31.0293C39.8086 30.9277 39.9531 30.8477 40.1211 30.7891C40.2891 30.7266 40.4746 30.6953 40.6777 30.6953C40.877 30.6953 41.0566 30.7246 41.2168 30.7832C41.377 30.8379 41.5137 30.916 41.627 31.0176C41.7402 31.1152 41.8262 31.2305 41.8848 31.3633C41.9473 31.4961 41.9785 31.6387 41.9785 31.791C41.9785 31.9512 41.9453 32.1016 41.8789 32.2422C41.8125 32.3789 41.7188 32.498 41.5977 32.5996C41.4766 32.7012 41.332 32.7832 41.1641 32.8457C40.9961 32.9043 40.8105 32.9336 40.6074 32.9336ZM43.4551 30.6133H45.7988V40H43.4551V30.6133ZM53.0762 39.3086C52.8418 39.4727 52.6094 39.6074 52.3789 39.7129C52.1484 39.8184 51.9219 39.9004 51.6992 39.959C51.4805 40.0176 51.2637 40.0586 51.0488 40.082C50.8379 40.1055 50.6328 40.1172 50.4336 40.1172C49.8984 40.1172 49.4219 40.0508 49.0039 39.918C48.5898 39.7812 48.2402 39.5859 47.9551 39.332C47.6699 39.0781 47.4531 38.7676 47.3047 38.4004C47.1602 38.0332 47.0879 37.6152 47.0879 37.1465C47.0879 36.5957 47.1836 36.1055 47.375 35.6758C47.5703 35.2461 47.8301 34.8828 48.1543 34.5859C48.4785 34.2891 48.8535 34.0625 49.2793 33.9062C49.7051 33.75 50.1523 33.6719 50.6211 33.6719C51.0352 33.6719 51.4141 33.7344 51.7578 33.8594C52.1016 33.9805 52.3965 34.1621 52.6426 34.4043C52.8926 34.6426 53.0859 34.9395 53.2227 35.2949C53.3594 35.6504 53.4277 36.0586 53.4277 36.5195C53.4277 36.6953 53.4199 36.8438 53.4043 36.9648C53.3887 37.0859 53.373 37.1797 53.3574 37.2461H49.4902C49.4902 37.5 49.5332 37.7129 49.6191 37.8848C49.709 38.0566 49.8359 38.1973 50 38.3066C50.1641 38.4121 50.3613 38.4883 50.5918 38.5352C50.8262 38.582 51.0879 38.6055 51.377 38.6055C51.6152 38.6055 51.8848 38.5879 52.1855 38.5527C52.4863 38.5176 52.7832 38.4531 53.0762 38.3594V39.3086ZM51.3184 36.5195C51.3184 36.2617 51.2969 36.041 51.2539 35.8574C51.2109 35.6699 51.1504 35.5176 51.0723 35.4004C50.998 35.2793 50.9043 35.1914 50.791 35.1367C50.6816 35.082 50.5605 35.0547 50.4277 35.0547C50.1348 35.0547 49.9043 35.1777 49.7363 35.4238C49.5723 35.666 49.4902 36.0312 49.4902 36.5195H51.3184Z" fill="#141414"/>
<path d="M22 0H42V0C42 1.65685 40.6569 3 39 3H25C23.3431 3 22 1.65685 22 0V0Z" fill="#141414"/>
<path d="M22 20C22 17.7909 23.7909 16 26 16H38C40.2091 16 42 17.7909 42 20V27C42 27.5523 41.5523 28 41 28H23C22.4477 28 22 27.5523 22 27V20Z" fill="#141414"/>
<circle cx="32" cy="12" r="5" fill="#141414"/>
</svg>
