<svg width="64" height="48" viewBox="0 0 64 48" fill="none" xmlns="http://www.w3.org/2000/svg">
<path d="M14.1465 38.7168C14.3027 38.7168 14.457 38.7012 14.6094 38.6699C14.7656 38.6387 14.9023 38.5859 15.0195 38.5117C15.1406 38.4375 15.2383 38.3418 15.3125 38.2246C15.3867 38.1074 15.4238 37.9629 15.4238 37.791C15.4238 37.584 15.3691 37.4082 15.2598 37.2637C15.1543 37.1191 15.0137 36.9922 14.8379 36.8828C14.6621 36.7695 14.4629 36.666 14.2402 36.5723C14.0176 36.4785 13.7891 36.3809 13.5547 36.2793C13.3203 36.1777 13.0918 36.0645 12.8691 35.9395C12.6465 35.8105 12.4473 35.6562 12.2715 35.4766C12.0957 35.2969 11.9531 35.084 11.8438 34.8379C11.7383 34.5879 11.6855 34.291 11.6855 33.9473C11.6855 33.5449 11.7637 33.1797 11.9199 32.8516C12.0762 32.5234 12.2988 32.2461 12.5879 32.0195C12.877 31.7891 13.2285 31.6113 13.6426 31.4863C14.0566 31.3613 14.5195 31.2988 15.0312 31.2988C15.1641 31.2988 15.3223 31.3047 15.5059 31.3164C15.6934 31.3242 15.8906 31.3398 16.0977 31.3633C16.3086 31.3867 16.5234 31.418 16.7422 31.457C16.9609 31.4922 17.1719 31.5371 17.375 31.5918L17.0352 33.0859L16.9355 33.1328C16.7637 33.0547 16.5898 32.9883 16.4141 32.9336C16.2383 32.8789 16.0664 32.834 15.8984 32.7988C15.7344 32.7637 15.5781 32.7383 15.4297 32.7227C15.2852 32.707 15.1562 32.6992 15.043 32.6992C14.6914 32.6992 14.4121 32.7695 14.2051 32.9102C13.998 33.0508 13.8945 33.2617 13.8945 33.543C13.8945 33.7461 13.9473 33.918 14.0527 34.0586C14.1621 34.1992 14.3047 34.3242 14.4805 34.4336C14.6562 34.543 14.8555 34.6426 15.0781 34.7324C15.3047 34.8223 15.5332 34.9199 15.7637 35.0254C15.998 35.127 16.2266 35.2422 16.4492 35.3711C16.6758 35.4961 16.877 35.6504 17.0527 35.834C17.2285 36.0137 17.3691 36.2305 17.4746 36.4844C17.584 36.7344 17.6387 37.0332 17.6387 37.3809C17.6387 37.7949 17.5586 38.1699 17.3984 38.5059C17.2422 38.8418 17.0156 39.1289 16.7188 39.3672C16.4219 39.6055 16.0605 39.791 15.6348 39.9238C15.209 40.0527 14.7305 40.1172 14.1992 40.1172C14.0078 40.1172 13.7988 40.1074 13.5723 40.0879C13.3496 40.0684 13.1152 40.0371 12.8691 39.9941C12.627 39.9512 12.3809 39.8945 12.1309 39.8242C11.8809 39.7539 11.6348 39.666 11.3926 39.5605L11.7266 38.0605L11.8496 38.002C12.0801 38.1074 12.2949 38.2031 12.4941 38.2891C12.6973 38.375 12.8906 38.4512 13.0742 38.5176C13.2617 38.5801 13.4434 38.6289 13.6191 38.6641C13.7949 38.6992 13.9707 38.7168 14.1465 38.7168ZM24.5879 39.3086C24.3535 39.4727 24.1211 39.6074 23.8906 39.7129C23.6602 39.8184 23.4336 39.9004 23.2109 39.959C22.9922 40.0176 22.7754 40.0586 22.5605 40.082C22.3496 40.1055 22.1445 40.1172 21.9453 40.1172C21.4102 40.1172 20.9336 40.0508 20.5156 39.918C20.1016 39.7812 19.752 39.5859 19.4668 39.332C19.1816 39.0781 18.9648 38.7676 18.8164 38.4004C18.6719 38.0332 18.5996 37.6152 18.5996 37.1465C18.5996 36.5957 18.6953 36.1055 18.8867 35.6758C19.082 35.2461 19.3418 34.8828 19.666 34.5859C19.9902 34.2891 20.3652 34.0625 20.791 33.9062C21.2168 33.75 21.6641 33.6719 22.1328 33.6719C22.5469 33.6719 22.9258 33.7344 23.2695 33.8594C23.6133 33.9805 23.9082 34.1621 24.1543 34.4043C24.4043 34.6426 24.5977 34.9395 24.7344 35.2949C24.8711 35.6504 24.9395 36.0586 24.9395 36.5195C24.9395 36.6953 24.9316 36.8438 24.916 36.9648C24.9004 37.0859 24.8848 37.1797 24.8691 37.2461H21.002C21.002 37.5 21.0449 37.7129 21.1309 37.8848C21.2207 38.0566 21.3477 38.1973 21.5117 38.3066C21.6758 38.4121 21.873 38.4883 22.1035 38.5352C22.3379 38.582 22.5996 38.6055 22.8887 38.6055C23.127 38.6055 23.3965 38.5879 23.6973 38.5527C23.998 38.5176 24.2949 38.4531 24.5879 38.3594V39.3086ZM22.8301 36.5195C22.8301 36.2617 22.8086 36.041 22.7656 35.8574C22.7227 35.6699 22.6621 35.5176 22.584 35.4004C22.5098 35.2793 22.416 35.1914 22.3027 35.1367C22.1934 35.082 22.0723 35.0547 21.9395 35.0547C21.6465 35.0547 21.416 35.1777 21.248 35.4238C21.084 35.666 21.002 36.0312 21.002 36.5195H22.8301ZM29.5918 39.1094C29.4668 39.2148 29.3281 39.3262 29.1758 39.4434C29.0273 39.5605 28.8633 39.6699 28.6836 39.7715C28.5078 39.8691 28.3203 39.9512 28.1211 40.0176C27.9219 40.084 27.7129 40.1172 27.4941 40.1172C27.2051 40.1172 26.957 40.0605 26.75 39.9473C26.5469 39.8301 26.3809 39.6836 26.252 39.5078C26.123 39.332 26.0273 39.1406 25.9648 38.9336C25.9062 38.7227 25.877 38.5215 25.877 38.3301C25.877 38.0293 25.9473 37.752 26.0879 37.498C26.2324 37.2441 26.4492 37.0254 26.7383 36.8418C27.0312 36.6543 27.3965 36.5098 27.834 36.4082C28.2715 36.3027 28.7832 36.25 29.3691 36.25H29.498V35.9453C29.498 35.6445 29.4062 35.4219 29.2227 35.2773C29.0391 35.1289 28.791 35.0547 28.4785 35.0547C28.334 35.0547 28.1816 35.0723 28.0215 35.1074C27.8652 35.1426 27.707 35.1914 27.5469 35.2539C27.3867 35.3164 27.2285 35.3887 27.0723 35.4707C26.916 35.5527 26.7676 35.6406 26.627 35.7344L26.5215 35.6758L26.1406 34.3164C26.6602 34.0898 27.1543 33.9258 27.623 33.8242C28.0918 33.7227 28.5625 33.6719 29.0352 33.6719C29.4102 33.6719 29.7656 33.707 30.1016 33.7773C30.4414 33.8438 30.7402 33.957 30.998 34.1172C31.2559 34.2734 31.4609 34.4844 31.6133 34.75C31.7656 35.0156 31.8418 35.3438 31.8418 35.7344V38.043C31.8418 38.1953 31.8711 38.3281 31.9297 38.4414C31.9883 38.5508 32.0996 38.6055 32.2637 38.6055C32.3184 38.6055 32.3652 38.6035 32.4043 38.5996C32.4473 38.5957 32.498 38.582 32.5566 38.5586V39.5078C32.2793 39.7031 32.002 39.8535 31.7246 39.959C31.4473 40.0645 31.1797 40.1172 30.9219 40.1172C30.6172 40.1172 30.3535 40.0391 30.1309 39.8828C29.9082 39.7227 29.7285 39.4648 29.5918 39.1094ZM29.498 36.9766H29.3457C29.0879 36.9766 28.8691 36.9961 28.6895 37.0352C28.5137 37.0742 28.3711 37.1309 28.2617 37.2051C28.1523 37.2754 28.0723 37.3652 28.0215 37.4746C27.9746 37.584 27.9512 37.709 27.9512 37.8496C27.9512 37.9902 27.9707 38.1094 28.0098 38.207C28.0527 38.3008 28.1074 38.3789 28.1738 38.4414C28.2441 38.5 28.3223 38.543 28.4082 38.5703C28.498 38.5938 28.5898 38.6055 28.6836 38.6055C28.8086 38.6055 28.9414 38.584 29.082 38.541C29.2227 38.498 29.3613 38.4297 29.498 38.3359V36.9766ZM33.5527 33.7891H35.5566L35.8262 35.5938C35.8926 35.4727 35.959 35.3535 36.0254 35.2363C36.0918 35.1152 36.1523 35.0059 36.207 34.9082C36.2656 34.8066 36.3145 34.7207 36.3535 34.6504C36.3965 34.5762 36.4238 34.5273 36.4355 34.5039C36.5098 34.3828 36.5898 34.2715 36.6758 34.1699C36.7656 34.0684 36.8652 33.9805 36.9746 33.9062C37.0879 33.832 37.2129 33.7754 37.3496 33.7363C37.4902 33.6934 37.6484 33.6719 37.8242 33.6719C37.9375 33.6719 38.0664 33.6875 38.2109 33.7188C38.3594 33.75 38.498 33.7988 38.627 33.8652L38.3691 35.957C38.3301 35.9492 38.2773 35.9434 38.2109 35.9395C38.1484 35.9316 38.0801 35.9258 38.0059 35.9219C37.9316 35.918 37.8594 35.916 37.7891 35.916C37.7188 35.9121 37.6582 35.9102 37.6074 35.9102C37.4355 35.9102 37.2656 35.9219 37.0977 35.9453C36.9297 35.9688 36.7695 36.0039 36.6172 36.0508C36.4688 36.0938 36.332 36.1484 36.207 36.2148C36.082 36.2773 35.9785 36.3477 35.8965 36.4258V40H33.5527V33.7891ZM44.4629 39.3086C44.2715 39.4688 44.084 39.6016 43.9004 39.707C43.7168 39.8086 43.5332 39.8906 43.3496 39.9531C43.1699 40.0117 42.9883 40.0527 42.8047 40.0762C42.625 40.1035 42.4414 40.1172 42.2539 40.1172C41.7656 40.1172 41.332 40.0469 40.9531 39.9062C40.5742 39.7617 40.2539 39.5605 39.9922 39.3027C39.7344 39.0449 39.5371 38.7383 39.4004 38.3828C39.2676 38.0273 39.2012 37.6367 39.2012 37.2109C39.2012 36.6836 39.3008 36.2031 39.5 35.7695C39.6992 35.3359 39.9707 34.9648 40.3145 34.6562C40.6621 34.3438 41.0703 34.1016 41.5391 33.9297C42.0078 33.7578 42.5117 33.6719 43.0508 33.6719C43.1367 33.6719 43.2344 33.6758 43.3438 33.6836C43.457 33.6875 43.5781 33.6973 43.707 33.7129C43.8398 33.7285 43.9785 33.75 44.123 33.7773C44.2676 33.8047 44.416 33.8398 44.5684 33.8828L44.252 35.3242L44.1465 35.3828C44.0879 35.3477 44.0176 35.3105 43.9355 35.2715C43.8535 35.2324 43.7637 35.1973 43.666 35.166C43.5684 35.1348 43.4648 35.1094 43.3555 35.0898C43.2461 35.0664 43.1348 35.0547 43.0215 35.0547C42.8066 35.0547 42.6113 35.0977 42.4355 35.1836C42.2637 35.2656 42.1152 35.3848 41.9902 35.541C41.8691 35.6934 41.7734 35.8809 41.7031 36.1035C41.6367 36.3262 41.6035 36.5762 41.6035 36.8535C41.6035 37.1699 41.6465 37.4395 41.7324 37.6621C41.8184 37.8809 41.9375 38.0605 42.0898 38.2012C42.2422 38.3418 42.4258 38.4453 42.6406 38.5117C42.8555 38.5742 43.0918 38.6055 43.3496 38.6055C43.4355 38.6055 43.5195 38.6016 43.6016 38.5938C43.6836 38.5859 43.7676 38.5723 43.8535 38.5527C43.9434 38.5332 44.0371 38.5078 44.1348 38.4766C44.2324 38.4453 44.3418 38.4062 44.4629 38.3594V39.3086ZM45.7168 30.6133H48.0605V34.7734C48.2207 34.6406 48.3848 34.5078 48.5527 34.375C48.7246 34.2422 48.9023 34.125 49.0859 34.0234C49.2695 33.918 49.4609 33.834 49.6602 33.7715C49.8633 33.7051 50.0762 33.6719 50.2988 33.6719C50.5723 33.6719 50.8242 33.7227 51.0547 33.8242C51.2891 33.9219 51.4902 34.0645 51.6582 34.252C51.8301 34.4355 51.9629 34.6582 52.0566 34.9199C52.1504 35.1816 52.1973 35.4727 52.1973 35.793V40H49.8535V36.1445C49.8535 35.9883 49.832 35.8516 49.7891 35.7344C49.7461 35.6133 49.6875 35.5117 49.6133 35.4297C49.5391 35.3477 49.4512 35.2871 49.3496 35.248C49.252 35.2051 49.1465 35.1836 49.0332 35.1836C48.8613 35.1836 48.6934 35.2246 48.5293 35.3066C48.3691 35.3887 48.2129 35.4922 48.0605 35.6172V40H45.7168V30.6133Z" fill="#141414"/>
<path d="M22 0H42V0C42 1.65685 40.6569 3 39 3H25C23.3431 3 22 1.65685 22 0V0Z" fill="#141414"/>
<circle cx="30" cy="15" r="7.5" fill="#141414" stroke="#141414"/>
<rect x="35.0485" y="21.4627" width="2" height="9.09723" rx="0.5" transform="rotate(-45 35.0485 21.4627)" fill="#141414" stroke="black"/>
</svg>
