<svg width="64" height="48" viewBox="0 0 64 48" fill="none" xmlns="http://www.w3.org/2000/svg">
<path d="M15.9512 39.209C16.209 39.209 16.4473 39.1758 16.666 39.1094C16.8848 39.0391 17.0723 38.9414 17.2285 38.8164C17.3848 38.6875 17.5059 38.5352 17.5918 38.3594C17.6816 38.1836 17.7266 37.9883 17.7266 37.7734C17.7266 37.5195 17.666 37.3047 17.5449 37.1289C17.4277 36.9531 17.2715 36.7988 17.0762 36.666C16.8848 36.5332 16.6641 36.416 16.4141 36.3145C16.1641 36.209 15.9102 36.1035 15.6523 35.998C15.3945 35.8887 15.1406 35.7715 14.8906 35.6465C14.6406 35.5215 14.418 35.3691 14.2227 35.1895C14.0312 35.0098 13.875 34.7988 13.7539 34.5566C13.6367 34.3105 13.5781 34.0137 13.5781 33.666C13.5781 33.2988 13.6484 32.9688 13.7891 32.6758C13.9297 32.3828 14.125 32.1348 14.375 31.9316C14.6289 31.7246 14.9277 31.5684 15.2715 31.4629C15.6191 31.3535 16 31.2988 16.4141 31.2988C16.668 31.2988 16.9863 31.3242 17.3691 31.375C17.752 31.4219 18.1582 31.5098 18.5879 31.6387L18.3945 32.6582L18.2773 32.7168C18.0625 32.6191 17.8535 32.5371 17.6504 32.4707C17.4473 32.4043 17.2559 32.3516 17.0762 32.3125C16.8965 32.2734 16.7305 32.2461 16.5781 32.2305C16.4258 32.2148 16.293 32.207 16.1797 32.207C15.9492 32.207 15.7402 32.2363 15.5527 32.2949C15.3691 32.3496 15.2109 32.4316 15.0781 32.541C14.9492 32.6465 14.8477 32.7773 14.7734 32.9336C14.7031 33.0859 14.668 33.2598 14.668 33.4551C14.668 33.7168 14.7266 33.9395 14.8438 34.123C14.9648 34.3066 15.123 34.4688 15.3184 34.6094C15.5176 34.75 15.7422 34.875 15.9922 34.9844C16.2422 35.0938 16.4961 35.2031 16.7539 35.3125C17.0156 35.4219 17.2715 35.5391 17.5215 35.6641C17.7715 35.7891 17.9941 35.9355 18.1895 36.1035C18.3887 36.2676 18.5469 36.4629 18.6641 36.6895C18.7852 36.916 18.8457 37.1875 18.8457 37.5039C18.8457 37.8516 18.7695 38.1836 18.6172 38.5C18.4688 38.8125 18.2578 39.0898 17.9844 39.332C17.7148 39.5703 17.3887 39.7617 17.0059 39.9062C16.627 40.0469 16.207 40.1172 15.7461 40.1172C15.5508 40.1172 15.3457 40.1035 15.1309 40.0762C14.9199 40.0488 14.707 40.0117 14.4922 39.9648C14.2773 39.9141 14.0645 39.8535 13.8535 39.7832C13.6465 39.7129 13.4492 39.6348 13.2617 39.5488L13.4609 38.5234L13.5781 38.4648C13.9766 38.6953 14.3789 38.877 14.7852 39.0098C15.1953 39.1426 15.584 39.209 15.9512 39.209ZM25.6484 39.4727C25.5 39.5781 25.3281 39.6719 25.1328 39.7539C24.9414 39.832 24.7422 39.8984 24.5352 39.9531C24.3281 40.0078 24.1191 40.0488 23.9082 40.0762C23.7012 40.1035 23.5078 40.1172 23.3281 40.1172C22.9297 40.1172 22.5508 40.0508 22.1914 39.918C21.832 39.7852 21.5176 39.5898 21.248 39.332C20.9785 39.0742 20.7637 38.7559 20.6035 38.377C20.4434 37.9941 20.3633 37.5547 20.3633 37.0586C20.3633 36.5469 20.4473 36.082 20.6152 35.6641C20.7871 35.2461 21.0156 34.8906 21.3008 34.5977C21.5859 34.3008 21.9141 34.0723 22.2852 33.9121C22.6602 33.752 23.0527 33.6719 23.4629 33.6719C23.7949 33.6719 24.1035 33.7285 24.3887 33.8418C24.6777 33.9512 24.9277 34.1172 25.1387 34.3398C25.3535 34.5625 25.5215 34.8418 25.6426 35.1777C25.7637 35.5098 25.8242 35.8984 25.8242 36.3438C25.8242 36.4336 25.8203 36.541 25.8125 36.666C25.8047 36.791 25.7891 36.9219 25.7656 37.0586H21.5234C21.5234 37.3945 21.582 37.6953 21.6992 37.9609C21.8203 38.2227 21.9883 38.4453 22.2031 38.6289C22.4219 38.8086 22.6816 38.9453 22.9824 39.0391C23.2832 39.1328 23.6152 39.1797 23.9785 39.1797C24.0684 39.1797 24.1777 39.1758 24.3066 39.168C24.4355 39.1602 24.5742 39.1445 24.7227 39.1211C24.8711 39.0977 25.0254 39.0645 25.1855 39.0215C25.3457 38.9746 25.5 38.9141 25.6484 38.8398V39.4727ZM24.7695 36.3672C24.7695 36.0742 24.7285 35.8164 24.6465 35.5938C24.5645 35.3672 24.4531 35.1777 24.3125 35.0254C24.1719 34.873 24.0078 34.7578 23.8203 34.6797C23.6367 34.6016 23.4395 34.5625 23.2285 34.5625C22.9941 34.5625 22.7734 34.6113 22.5664 34.709C22.3594 34.8027 22.1777 34.9316 22.0215 35.0957C21.8691 35.2598 21.748 35.4512 21.6582 35.6699C21.5684 35.8887 21.5234 36.1211 21.5234 36.3672H24.7695ZM30.9102 39.0742C30.8125 39.1562 30.6934 39.2578 30.5527 39.3789C30.416 39.4961 30.2598 39.6094 30.084 39.7188C29.9121 39.8281 29.7227 39.9219 29.5156 40C29.3125 40.0781 29.0957 40.1172 28.8652 40.1172C28.6582 40.1172 28.4551 40.0801 28.2559 40.0059C28.0605 39.9355 27.8867 39.8301 27.7344 39.6895C27.582 39.5449 27.459 39.3672 27.3652 39.1562C27.2754 38.9453 27.2305 38.7031 27.2305 38.4297C27.2305 38.2617 27.25 38.0918 27.2891 37.9199C27.332 37.748 27.4023 37.584 27.5 37.4277C27.5977 37.2676 27.7246 37.1191 27.8809 36.9824C28.041 36.8418 28.2363 36.7207 28.4668 36.6191C28.7012 36.5137 28.9766 36.4316 29.293 36.373C29.6094 36.3145 29.9727 36.2852 30.3828 36.2852H30.9102V35.7461C30.9102 35.5664 30.8789 35.4043 30.8164 35.2598C30.7539 35.1152 30.666 34.9922 30.5527 34.8906C30.4434 34.7852 30.3105 34.7051 30.1543 34.6504C30.002 34.5918 29.832 34.5625 29.6445 34.5625C29.5039 34.5625 29.3535 34.5781 29.1934 34.6094C29.0371 34.6406 28.8789 34.6855 28.7188 34.7441C28.5625 34.8027 28.4121 34.8711 28.2676 34.9492C28.123 35.0273 27.9961 35.1133 27.8867 35.207L27.7812 35.1484L27.5469 34.293C27.7734 34.168 27.9922 34.0664 28.2031 33.9883C28.4141 33.9062 28.6152 33.8418 28.8066 33.7949C29.002 33.748 29.1875 33.7168 29.3633 33.7012C29.5391 33.6816 29.707 33.6719 29.8672 33.6719C30.5977 33.6719 31.1387 33.8242 31.4902 34.1289C31.8457 34.4297 32.0234 34.8828 32.0234 35.4883V38.5469C32.0234 38.5977 32.0273 38.6602 32.0352 38.7344C32.043 38.8047 32.0605 38.873 32.0879 38.9395C32.1191 39.0059 32.1621 39.0625 32.2168 39.1094C32.2754 39.1562 32.3535 39.1797 32.4512 39.1797C32.5059 39.1797 32.5781 39.1719 32.668 39.1562C32.7578 39.1367 32.8477 39.1055 32.9375 39.0625V39.6836C32.75 39.8125 32.5605 39.918 32.3691 40C32.1816 40.0781 32 40.1172 31.8242 40.1172C31.6641 40.1172 31.5312 40.084 31.4258 40.0176C31.3242 39.9551 31.2383 39.873 31.168 39.7715C31.1016 39.6699 31.0488 39.5586 31.0098 39.4375C30.9707 39.3125 30.9375 39.1914 30.9102 39.0742ZM30.9102 36.9648H30.4648C30.0078 36.9648 29.6426 36.998 29.3691 37.0645C29.0996 37.127 28.8926 37.2129 28.748 37.3223C28.6074 37.4277 28.5137 37.5508 28.4668 37.6914C28.4238 37.832 28.4023 37.9785 28.4023 38.1309C28.4023 38.2949 28.4258 38.4414 28.4727 38.5703C28.5195 38.6992 28.584 38.8105 28.666 38.9043C28.752 38.9941 28.8535 39.0625 28.9707 39.1094C29.0879 39.1562 29.2148 39.1797 29.3516 39.1797C29.457 39.1797 29.5645 39.168 29.6738 39.1445C29.7871 39.1172 29.9062 39.0723 30.0312 39.0098C30.1602 38.9434 30.2949 38.8555 30.4355 38.7461C30.5801 38.6367 30.7383 38.4961 30.9102 38.3242V36.9648ZM34.2969 33.7891H35.1641L35.3398 35.6523C35.3906 35.5547 35.4434 35.4551 35.498 35.3535C35.5566 35.248 35.6133 35.1465 35.668 35.0488C35.7266 34.9512 35.7832 34.8594 35.8379 34.7734C35.8926 34.6875 35.9414 34.6133 35.9844 34.5508C36.0703 34.4297 36.166 34.3164 36.2715 34.2109C36.3809 34.1016 36.498 34.0078 36.623 33.9297C36.748 33.8477 36.8809 33.7852 37.0215 33.7422C37.1621 33.6953 37.3125 33.6719 37.4727 33.6719C37.5859 33.6719 37.6934 33.6855 37.7949 33.7129C37.8965 33.7363 37.9805 33.7773 38.0469 33.8359L37.9297 34.8789C37.8594 34.8594 37.7891 34.8477 37.7188 34.8438C37.6523 34.8359 37.5859 34.832 37.5195 34.832C37.2422 34.832 37 34.877 36.793 34.9668C36.5898 35.0566 36.4062 35.1797 36.2422 35.3359C36.082 35.4883 35.9355 35.668 35.8027 35.875C35.6738 36.082 35.543 36.3047 35.4102 36.543V40H34.2969V33.7891ZM43.5312 39.4727C43.2891 39.6602 43 39.8145 42.6641 39.9355C42.332 40.0566 41.9688 40.1172 41.5742 40.1172C41.1523 40.1172 40.7695 40.0449 40.4258 39.9004C40.0859 39.752 39.7949 39.5469 39.5527 39.2852C39.3105 39.0234 39.123 38.7109 38.9902 38.3477C38.8613 37.9805 38.7969 37.5801 38.7969 37.1465C38.7969 36.6426 38.8828 36.1777 39.0547 35.752C39.2266 35.3262 39.4609 34.959 39.7578 34.6504C40.0586 34.3418 40.4121 34.1016 40.8184 33.9297C41.2246 33.7578 41.6602 33.6719 42.125 33.6719C42.2344 33.6719 42.3516 33.6777 42.4766 33.6895C42.6055 33.6973 42.7324 33.7129 42.8574 33.7363C42.9824 33.7598 43.1035 33.7891 43.2207 33.8242C43.3379 33.8555 43.4414 33.8945 43.5312 33.9414L43.2969 34.9141L43.168 34.9727C43.0898 34.9141 43 34.8594 42.8984 34.8086C42.8008 34.7578 42.6953 34.7148 42.582 34.6797C42.4727 34.6445 42.3574 34.6172 42.2363 34.5977C42.1191 34.5742 42.0039 34.5625 41.8906 34.5625C41.6289 34.5625 41.3809 34.6152 41.1465 34.7207C40.916 34.8223 40.7129 34.9727 40.5371 35.1719C40.3613 35.3672 40.2227 35.6094 40.1211 35.8984C40.0195 36.1836 39.9688 36.5098 39.9688 36.877C39.9688 37.252 40.0215 37.582 40.127 37.8672C40.2363 38.1523 40.3848 38.3926 40.5723 38.5879C40.7598 38.7832 40.9824 38.9316 41.2402 39.0332C41.498 39.1309 41.7773 39.1797 42.0781 39.1797C42.2578 39.1797 42.4746 39.1582 42.7285 39.1152C42.9824 39.0684 43.25 38.9766 43.5312 38.8398V39.4727ZM45.2656 30.6133H46.3789V34.7969C46.5195 34.6719 46.6758 34.543 46.8477 34.4102C47.0195 34.2773 47.2051 34.1562 47.4043 34.0469C47.6035 33.9375 47.8125 33.8477 48.0312 33.7773C48.25 33.707 48.4766 33.6719 48.7109 33.6719C48.9922 33.6719 49.2461 33.7266 49.4727 33.8359C49.7031 33.9414 49.9004 34.0918 50.0645 34.2871C50.2285 34.4785 50.3535 34.7109 50.4395 34.9844C50.5293 35.2539 50.5742 35.5547 50.5742 35.8867V40H49.4609V35.9805C49.4609 35.7539 49.4277 35.5547 49.3613 35.3828C49.2988 35.2109 49.2109 35.0684 49.0977 34.9551C48.9883 34.8379 48.8555 34.752 48.6992 34.6973C48.543 34.6387 48.375 34.6094 48.1953 34.6094C47.8672 34.6094 47.5566 34.6953 47.2637 34.8672C46.9707 35.0391 46.6758 35.2656 46.3789 35.5469V40H45.2656V30.6133Z" fill="#141414"/>
<circle cx="30" cy="15" r="7.5" stroke="#141414"/>
<rect x="35.0485" y="21.4627" width="2" height="9.09723" rx="0.5" transform="rotate(-45 35.0485 21.4627)" stroke="black"/>
</svg>
