<svg width="64" height="48" viewBox="0 0 64 48" fill="none" xmlns="http://www.w3.org/2000/svg">
<path d="M25.2793 39.209C25.5371 39.209 25.7754 39.1758 25.9941 39.1094C26.2129 39.0391 26.4004 38.9414 26.5566 38.8164C26.7129 38.6875 26.834 38.5352 26.9199 38.3594C27.0098 38.1836 27.0547 37.9883 27.0547 37.7734C27.0547 37.5195 26.9941 37.3047 26.873 37.1289C26.7559 36.9531 26.5996 36.7988 26.4043 36.666C26.2129 36.5332 25.9922 36.416 25.7422 36.3145C25.4922 36.209 25.2383 36.1035 24.9805 35.998C24.7227 35.8887 24.4688 35.7715 24.2188 35.6465C23.9688 35.5215 23.7461 35.3691 23.5508 35.1895C23.3594 35.0098 23.2031 34.7988 23.082 34.5566C22.9648 34.3105 22.9062 34.0137 22.9062 33.666C22.9062 33.2988 22.9766 32.9688 23.1172 32.6758C23.2578 32.3828 23.4531 32.1348 23.7031 31.9316C23.957 31.7246 24.2559 31.5684 24.5996 31.4629C24.9473 31.3535 25.3281 31.2988 25.7422 31.2988C25.9961 31.2988 26.3145 31.3242 26.6973 31.375C27.0801 31.4219 27.4863 31.5098 27.916 31.6387L27.7227 32.6582L27.6055 32.7168C27.3906 32.6191 27.1816 32.5371 26.9785 32.4707C26.7754 32.4043 26.584 32.3516 26.4043 32.3125C26.2246 32.2734 26.0586 32.2461 25.9062 32.2305C25.7539 32.2148 25.6211 32.207 25.5078 32.207C25.2773 32.207 25.0684 32.2363 24.8809 32.2949C24.6973 32.3496 24.5391 32.4316 24.4062 32.541C24.2773 32.6465 24.1758 32.7773 24.1016 32.9336C24.0312 33.0859 23.9961 33.2598 23.9961 33.4551C23.9961 33.7168 24.0547 33.9395 24.1719 34.123C24.293 34.3066 24.4512 34.4688 24.6465 34.6094C24.8457 34.75 25.0703 34.875 25.3203 34.9844C25.5703 35.0938 25.8242 35.2031 26.082 35.3125C26.3438 35.4219 26.5996 35.5391 26.8496 35.6641C27.0996 35.7891 27.3223 35.9355 27.5176 36.1035C27.7168 36.2676 27.875 36.4629 27.9922 36.6895C28.1133 36.916 28.1738 37.1875 28.1738 37.5039C28.1738 37.8516 28.0977 38.1836 27.9453 38.5C27.7969 38.8125 27.5859 39.0898 27.3125 39.332C27.043 39.5703 26.7168 39.7617 26.334 39.9062C25.9551 40.0469 25.5352 40.1172 25.0742 40.1172C24.8789 40.1172 24.6738 40.1035 24.459 40.0762C24.248 40.0488 24.0352 40.0117 23.8203 39.9648C23.6055 39.9141 23.3926 39.8535 23.1816 39.7832C22.9746 39.7129 22.7773 39.6348 22.5898 39.5488L22.7891 38.5234L22.9062 38.4648C23.3047 38.6953 23.707 38.877 24.1133 39.0098C24.5234 39.1426 24.9121 39.209 25.2793 39.209ZM34.9766 39.4727C34.8281 39.5781 34.6562 39.6719 34.4609 39.7539C34.2695 39.832 34.0703 39.8984 33.8633 39.9531C33.6562 40.0078 33.4473 40.0488 33.2363 40.0762C33.0293 40.1035 32.8359 40.1172 32.6562 40.1172C32.2578 40.1172 31.8789 40.0508 31.5195 39.918C31.1602 39.7852 30.8457 39.5898 30.5762 39.332C30.3066 39.0742 30.0918 38.7559 29.9316 38.377C29.7715 37.9941 29.6914 37.5547 29.6914 37.0586C29.6914 36.5469 29.7754 36.082 29.9434 35.6641C30.1152 35.2461 30.3438 34.8906 30.6289 34.5977C30.9141 34.3008 31.2422 34.0723 31.6133 33.9121C31.9883 33.752 32.3809 33.6719 32.791 33.6719C33.123 33.6719 33.4316 33.7285 33.7168 33.8418C34.0059 33.9512 34.2559 34.1172 34.4668 34.3398C34.6816 34.5625 34.8496 34.8418 34.9707 35.1777C35.0918 35.5098 35.1523 35.8984 35.1523 36.3438C35.1523 36.4336 35.1484 36.541 35.1406 36.666C35.1328 36.791 35.1172 36.9219 35.0938 37.0586H30.8516C30.8516 37.3945 30.9102 37.6953 31.0273 37.9609C31.1484 38.2227 31.3164 38.4453 31.5312 38.6289C31.75 38.8086 32.0098 38.9453 32.3105 39.0391C32.6113 39.1328 32.9434 39.1797 33.3066 39.1797C33.3965 39.1797 33.5059 39.1758 33.6348 39.168C33.7637 39.1602 33.9023 39.1445 34.0508 39.1211C34.1992 39.0977 34.3535 39.0645 34.5137 39.0215C34.6738 38.9746 34.8281 38.9141 34.9766 38.8398V39.4727ZM34.0977 36.3672C34.0977 36.0742 34.0566 35.8164 33.9746 35.5938C33.8926 35.3672 33.7812 35.1777 33.6406 35.0254C33.5 34.873 33.3359 34.7578 33.1484 34.6797C32.9648 34.6016 32.7676 34.5625 32.5566 34.5625C32.3223 34.5625 32.1016 34.6113 31.8945 34.709C31.6875 34.8027 31.5059 34.9316 31.3496 35.0957C31.1973 35.2598 31.0762 35.4512 30.9863 35.6699C30.8965 35.8887 30.8516 36.1211 30.8516 36.3672H34.0977ZM36.8867 30.6133H38V40H36.8867V30.6133ZM40.1328 30.6133H41.2461V40H40.1328V30.6133Z" fill="#141414"/>
<path fill-rule="evenodd" clip-rule="evenodd" d="M33.4645 9.87868L41.4645 17.8787C42.636 19.0503 42.636 20.9498 41.4645 22.1213L37.1213 26.4645C35.9497 27.636 34.0503 27.636 32.8787 26.4645L24.8787 18.4645C24.3161 17.9019 24 17.1388 24 16.3432L24 12C24 10.3431 25.3431 9 27 9L31.3432 9C32.1388 9 32.9019 9.31607 33.4645 9.87868ZM31.3432 8C32.404 8 33.4214 8.42143 34.1716 9.17157L42.1716 17.1716C43.7337 18.7337 43.7337 21.2663 42.1716 22.8284L37.8284 27.1716C36.2663 28.7337 33.7337 28.7337 32.1716 27.1716L24.1716 19.1716C23.4214 18.4214 23 17.404 23 16.3432L23 12C23 9.79086 24.7908 8 27 8H31.3432ZM29 13C29 13.5523 28.5523 14 28 14C27.4477 14 27 13.5523 27 13C27 12.4477 27.4477 12 28 12C28.5523 12 29 12.4477 29 13ZM30 13C30 14.1046 29.1046 15 28 15C26.8954 15 26 14.1046 26 13C26 11.8954 26.8954 11 28 11C29.1046 11 30 11.8954 30 13Z" fill="#141414"/>
</svg>
